<svg xmlns="http://www.w3.org/2000/svg" xmlns:xlink="http://www.w3.org/1999/xlink" width="500" zoomAndPan="magnify" viewBox="0 0 375 374.999991" height="500" preserveAspectRatio="xMidYMid meet" version="1.0"><defs><clipPath id="ef5030353d"><path d="M 96.292969 0.796875 L 218.804688 0.796875 L 218.804688 106.039062 L 96.292969 106.039062 Z M 96.292969 0.796875 " clip-rule="nonzero"/></clipPath><clipPath id="71e936a9e7"><path d="M 218.757812 53.417969 L 188.140625 106.039062 L 126.910156 106.039062 L 96.292969 53.417969 L 126.910156 0.796875 L 188.140625 0.796875 Z M 218.757812 53.417969 " clip-rule="nonzero"/></clipPath><clipPath id="7ee085980b"><path d="M 0.292969 0.796875 L 122.804688 0.796875 L 122.804688 106.039062 L 0.292969 106.039062 Z M 0.292969 0.796875 " clip-rule="nonzero"/></clipPath><clipPath id="4251204bf4"><path d="M 122.757812 53.417969 L 92.140625 106.039062 L 30.910156 106.039062 L 0.292969 53.417969 L 30.910156 0.796875 L 92.140625 0.796875 Z M 122.757812 53.417969 " clip-rule="nonzero"/></clipPath><clipPath id="b2bccd5a0d"><rect x="0" width="123" y="0" height="107"/></clipPath><clipPath id="512c3ffc45"><path d="M 0.609375 53.417969 L 123.117188 53.417969 L 123.117188 158.660156 L 0.609375 158.660156 Z M 0.609375 53.417969 " clip-rule="nonzero"/></clipPath><clipPath id="5c6ac51e7c"><path d="M 123.074219 106.039062 L 92.457031 158.660156 L 31.222656 158.660156 L 0.609375 106.039062 L 31.222656 53.417969 L 92.457031 53.417969 Z M 123.074219 106.039062 " clip-rule="nonzero"/></clipPath><clipPath id="be2ce9b89a"><path d="M 0.609375 0.417969 L 123.117188 0.417969 L 123.117188 105.660156 L 0.609375 105.660156 Z M 0.609375 0.417969 " clip-rule="nonzero"/></clipPath><clipPath id="fda220d72d"><path d="M 123.074219 53.039062 L 92.457031 105.660156 L 31.222656 105.660156 L 0.609375 53.039062 L 31.222656 0.417969 L 92.457031 0.417969 Z M 123.074219 53.039062 " clip-rule="nonzero"/></clipPath><clipPath id="9dc5cb5cb7"><rect x="0" width="124" y="0" height="106"/></clipPath><clipPath id="533457be83"><path d="M 0.609375 162.339844 L 123.117188 162.339844 L 123.117188 267.582031 L 0.609375 267.582031 Z M 0.609375 162.339844 " clip-rule="nonzero"/></clipPath><clipPath id="66c10f9f9c"><path d="M 123.074219 214.960938 L 92.457031 267.582031 L 31.222656 267.582031 L 0.609375 214.960938 L 31.222656 162.339844 L 92.457031 162.339844 Z M 123.074219 214.960938 " clip-rule="nonzero"/></clipPath><clipPath id="85bad90011"><path d="M 0.609375 0.339844 L 123.117188 0.339844 L 123.117188 105.582031 L 0.609375 105.582031 Z M 0.609375 0.339844 " clip-rule="nonzero"/></clipPath><clipPath id="c91c5210fe"><path d="M 123.074219 52.960938 L 92.457031 105.582031 L 31.222656 105.582031 L 0.609375 52.960938 L 31.222656 0.339844 L 92.457031 0.339844 Z M 123.074219 52.960938 " clip-rule="nonzero"/></clipPath><clipPath id="cdb7891d18"><rect x="0" width="124" y="0" height="106"/></clipPath><clipPath id="d2c0a7adf7"><path d="M 96.292969 214.960938 L 218.804688 214.960938 L 218.804688 320.203125 L 96.292969 320.203125 Z M 96.292969 214.960938 " clip-rule="nonzero"/></clipPath><clipPath id="5d03243ff8"><path d="M 218.757812 267.582031 L 188.140625 320.203125 L 126.910156 320.203125 L 96.292969 267.582031 L 126.910156 214.960938 L 188.140625 214.960938 Z M 218.757812 267.582031 " clip-rule="nonzero"/></clipPath><clipPath id="ef71d0a9e5"><path d="M 0.292969 0.960938 L 122.804688 0.960938 L 122.804688 106.203125 L 0.292969 106.203125 Z M 0.292969 0.960938 " clip-rule="nonzero"/></clipPath><clipPath id="dbcb7001e6"><path d="M 122.757812 53.582031 L 92.140625 106.203125 L 30.910156 106.203125 L 0.292969 53.582031 L 30.910156 0.960938 L 92.140625 0.960938 Z M 122.757812 53.582031 " clip-rule="nonzero"/></clipPath><clipPath id="79b8fd2e54"><rect x="0" width="123" y="0" height="107"/></clipPath><clipPath id="15de864c5b"><path d="M 191.925781 53.417969 L 314.4375 53.417969 L 314.4375 158.660156 L 191.925781 158.660156 Z M 191.925781 53.417969 " clip-rule="nonzero"/></clipPath><clipPath id="1ffb701954"><path d="M 314.390625 106.039062 L 283.777344 158.660156 L 222.542969 158.660156 L 191.925781 106.039062 L 222.542969 53.417969 L 283.777344 53.417969 Z M 314.390625 106.039062 " clip-rule="nonzero"/></clipPath><clipPath id="0c07a583e2"><path d="M 0.925781 0.417969 L 123.398438 0.417969 L 123.398438 105.660156 L 0.925781 105.660156 Z M 0.925781 0.417969 " clip-rule="nonzero"/></clipPath><clipPath id="26d36a42e2"><path d="M 123.390625 53.039062 L 92.777344 105.660156 L 31.542969 105.660156 L 0.925781 53.039062 L 31.542969 0.417969 L 92.777344 0.417969 Z M 123.390625 53.039062 " clip-rule="nonzero"/></clipPath><clipPath id="67ddc0e5ae"><rect x="0" width="124" y="0" height="106"/></clipPath><clipPath id="ec72793e35"><path d="M 191.933594 162.339844 L 314.328125 162.339844 L 314.328125 267.566406 L 191.933594 267.566406 Z M 191.933594 162.339844 " clip-rule="nonzero"/></clipPath><clipPath id="4c712cc1ef"><path d="M 314.378906 214.953125 L 283.769531 267.566406 L 222.546875 267.566406 L 191.933594 214.953125 L 222.546875 162.339844 L 283.769531 162.339844 Z M 314.378906 214.953125 " clip-rule="nonzero"/></clipPath><clipPath id="0fcd046157"><rect x="0" width="336" y="0" height="321"/></clipPath></defs><rect x="-37.5" width="450" fill="#ffffff" y="-37.499999" height="449.999989" fill-opacity="1"/><rect x="-37.5" width="450" fill="#2d2c2c" y="-37.499999" height="449.999989" fill-opacity="1"/><g transform="matrix(1, 0, 0, 1, 30, 27)"><g clip-path="url(#0fcd046157)"><g clip-path="url(#ef5030353d)"><g clip-path="url(#71e936a9e7)"><g transform="matrix(1, 0, 0, 1, 96, 0)"><g clip-path="url(#b2bccd5a0d)"><g clip-path="url(#7ee085980b)"><g clip-path="url(#4251204bf4)"><path fill="#d9d9d9" d="M 0.292969 0.796875 L 122.804688 0.796875 L 122.804688 106.039062 L 0.292969 106.039062 Z M 0.292969 0.796875 " fill-opacity="1" fill-rule="nonzero"/></g></g></g></g></g></g><g clip-path="url(#512c3ffc45)"><g clip-path="url(#5c6ac51e7c)"><g transform="matrix(1, 0, 0, 1, 0, 53)"><g clip-path="url(#9dc5cb5cb7)"><g clip-path="url(#be2ce9b89a)"><g clip-path="url(#fda220d72d)"><path fill="#d9d9d9" d="M 0.609375 0.417969 L 123.117188 0.417969 L 123.117188 105.660156 L 0.609375 105.660156 Z M 0.609375 0.417969 " fill-opacity="1" fill-rule="nonzero"/></g></g></g></g></g></g><g clip-path="url(#533457be83)"><g clip-path="url(#66c10f9f9c)"><g transform="matrix(1, 0, 0, 1, 0, 162)"><g clip-path="url(#cdb7891d18)"><g clip-path="url(#85bad90011)"><g clip-path="url(#c91c5210fe)"><path fill="#d9d9d9" d="M 0.609375 0.339844 L 123.117188 0.339844 L 123.117188 105.582031 L 0.609375 105.582031 Z M 0.609375 0.339844 " fill-opacity="1" fill-rule="nonzero"/></g></g></g></g></g></g><g clip-path="url(#d2c0a7adf7)"><g clip-path="url(#5d03243ff8)"><g transform="matrix(1, 0, 0, 1, 96, 214)"><g clip-path="url(#79b8fd2e54)"><g clip-path="url(#ef71d0a9e5)"><g clip-path="url(#dbcb7001e6)"><path fill="#d9d9d9" d="M 0.292969 0.960938 L 122.804688 0.960938 L 122.804688 106.203125 L 0.292969 106.203125 Z M 0.292969 0.960938 " fill-opacity="1" fill-rule="nonzero"/></g></g></g></g></g></g><g clip-path="url(#15de864c5b)"><g clip-path="url(#1ffb701954)"><g transform="matrix(1, 0, 0, 1, 191, 53)"><g clip-path="url(#67ddc0e5ae)"><g clip-path="url(#0c07a583e2)"><g clip-path="url(#26d36a42e2)"><path fill="#d9d9d9" d="M 0.925781 0.417969 L 123.4375 0.417969 L 123.4375 105.660156 L 0.925781 105.660156 Z M 0.925781 0.417969 " fill-opacity="1" fill-rule="nonzero"/></g></g></g></g></g></g><g clip-path="url(#ec72793e35)"><g clip-path="url(#4c712cc1ef)"><path stroke-linecap="butt" transform="matrix(1.22402, 0, 0, 1.22402, 191.93375, 162.33797)" fill="none" stroke-linejoin="miter" d="M 100.035263 42.985538 L 75.028011 85.969544 L 25.010316 85.969544 L -0.000127593 42.985538 L 25.010316 0.00153084 L 75.028011 0.00153084 Z M 100.035263 42.985538 " stroke="#daa520" stroke-width="8.578292" stroke-opacity="1" stroke-miterlimit="4"/></g></g></g></g></svg>