<svg xmlns="http://www.w3.org/2000/svg" xmlns:xlink="http://www.w3.org/1999/xlink" width="500" zoomAndPan="magnify" viewBox="0 0 375 135.000003" height="180" preserveAspectRatio="xMidYMid meet" version="1.0"><defs><g/><clipPath id="feba3744ce"><path d="M 34.890625 0.589844 L 78.929688 0.589844 L 78.929688 38.425781 L 34.890625 38.425781 Z M 34.890625 0.589844 " clip-rule="nonzero"/></clipPath><clipPath id="85395f9aad"><path d="M 78.914062 19.507812 L 67.910156 38.425781 L 45.894531 38.425781 L 34.890625 19.507812 L 45.894531 0.589844 L 67.910156 0.589844 Z M 78.914062 19.507812 " clip-rule="nonzero"/></clipPath><clipPath id="39c3a177cc"><path d="M 0.890625 0.589844 L 44.929688 0.589844 L 44.929688 38.425781 L 0.890625 38.425781 Z M 0.890625 0.589844 " clip-rule="nonzero"/></clipPath><clipPath id="ba12d57a1a"><path d="M 44.914062 19.507812 L 33.910156 38.425781 L 11.894531 38.425781 L 0.890625 19.507812 L 11.894531 0.589844 L 33.910156 0.589844 Z M 44.914062 19.507812 " clip-rule="nonzero"/></clipPath><clipPath id="5cc1d13528"><rect x="0" width="45" y="0" height="39"/></clipPath><clipPath id="8f2ab249e1"><path d="M 0.492188 19.507812 L 44.53125 19.507812 L 44.53125 57.34375 L 0.492188 57.34375 Z M 0.492188 19.507812 " clip-rule="nonzero"/></clipPath><clipPath id="308ae975ef"><path d="M 44.515625 38.425781 L 33.511719 57.34375 L 11.496094 57.34375 L 0.492188 38.425781 L 11.496094 19.507812 L 33.511719 19.507812 Z M 44.515625 38.425781 " clip-rule="nonzero"/></clipPath><clipPath id="705b55e0a5"><path d="M 0.492188 0.507812 L 44.53125 0.507812 L 44.53125 38.34375 L 0.492188 38.34375 Z M 0.492188 0.507812 " clip-rule="nonzero"/></clipPath><clipPath id="59c7fe548f"><path d="M 44.515625 19.425781 L 33.511719 38.34375 L 11.496094 38.34375 L 0.492188 19.425781 L 11.496094 0.507812 L 33.511719 0.507812 Z M 44.515625 19.425781 " clip-rule="nonzero"/></clipPath><clipPath id="df9084beaf"><rect x="0" width="45" y="0" height="39"/></clipPath><clipPath id="85be420c96"><path d="M 0.492188 58.664062 L 44.53125 58.664062 L 44.53125 96.5 L 0.492188 96.5 Z M 0.492188 58.664062 " clip-rule="nonzero"/></clipPath><clipPath id="f1cb8a692e"><path d="M 44.515625 77.582031 L 33.511719 96.5 L 11.496094 96.5 L 0.492188 77.582031 L 11.496094 58.664062 L 33.511719 58.664062 Z M 44.515625 77.582031 " clip-rule="nonzero"/></clipPath><clipPath id="c63aa59c3e"><path d="M 0.492188 0.664062 L 44.53125 0.664062 L 44.53125 38.5 L 0.492188 38.5 Z M 0.492188 0.664062 " clip-rule="nonzero"/></clipPath><clipPath id="535c4a6b05"><path d="M 44.515625 19.582031 L 33.511719 38.5 L 11.496094 38.5 L 0.492188 19.582031 L 11.496094 0.664062 L 33.511719 0.664062 Z M 44.515625 19.582031 " clip-rule="nonzero"/></clipPath><clipPath id="7549a362bf"><rect x="0" width="45" y="0" height="39"/></clipPath><clipPath id="eb44187005"><path d="M 34.890625 77.582031 L 78.929688 77.582031 L 78.929688 115.417969 L 34.890625 115.417969 Z M 34.890625 77.582031 " clip-rule="nonzero"/></clipPath><clipPath id="97ebe26647"><path d="M 78.914062 96.5 L 67.910156 115.417969 L 45.894531 115.417969 L 34.890625 96.5 L 45.894531 77.582031 L 67.910156 77.582031 Z M 78.914062 96.5 " clip-rule="nonzero"/></clipPath><clipPath id="79cc5f9a6c"><path d="M 0.890625 0.582031 L 44.929688 0.582031 L 44.929688 38.417969 L 0.890625 38.417969 Z M 0.890625 0.582031 " clip-rule="nonzero"/></clipPath><clipPath id="87737554e7"><path d="M 44.914062 19.5 L 33.910156 38.417969 L 11.894531 38.417969 L 0.890625 19.5 L 11.894531 0.582031 L 33.910156 0.582031 Z M 44.914062 19.5 " clip-rule="nonzero"/></clipPath><clipPath id="bf9a6a8bba"><rect x="0" width="45" y="0" height="39"/></clipPath><clipPath id="2f7a11f808"><path d="M 69.269531 19.507812 L 113.3125 19.507812 L 113.3125 57.34375 L 69.269531 57.34375 Z M 69.269531 19.507812 " clip-rule="nonzero"/></clipPath><clipPath id="edb66bdbdc"><path d="M 113.296875 38.425781 L 102.289062 57.34375 L 80.277344 57.34375 L 69.269531 38.425781 L 80.277344 19.507812 L 102.289062 19.507812 Z M 113.296875 38.425781 " clip-rule="nonzero"/></clipPath><clipPath id="9c44a3546b"><path d="M 0.269531 0.507812 L 44.3125 0.507812 L 44.3125 38.34375 L 0.269531 38.34375 Z M 0.269531 0.507812 " clip-rule="nonzero"/></clipPath><clipPath id="f8375fdd8a"><path d="M 44.296875 19.425781 L 33.289062 38.34375 L 11.277344 38.34375 L 0.269531 19.425781 L 11.277344 0.507812 L 33.289062 0.507812 Z M 44.296875 19.425781 " clip-rule="nonzero"/></clipPath><clipPath id="4db2606ef1"><rect x="0" width="45" y="0" height="39"/></clipPath><clipPath id="ab59115c3e"><path d="M 69.273438 58.664062 L 113.273438 58.664062 L 113.273438 96.492188 L 69.273438 96.492188 Z M 69.273438 58.664062 " clip-rule="nonzero"/></clipPath><clipPath id="f968cb6eb6"><path d="M 113.292969 77.578125 L 102.285156 96.492188 L 80.277344 96.492188 L 69.273438 77.578125 L 80.277344 58.664062 L 102.285156 58.664062 Z M 113.292969 77.578125 " clip-rule="nonzero"/></clipPath><clipPath id="3ff642d63d"><rect x="0" width="123" y="0" height="116"/></clipPath></defs><g transform="matrix(1, 0, 0, 1, 32, 9)"><g clip-path="url(#3ff642d63d)"><g clip-path="url(#feba3744ce)"><g clip-path="url(#85395f9aad)"><g transform="matrix(1, 0, 0, 1, 34, -0.000000000000005329)"><g clip-path="url(#5cc1d13528)"><g clip-path="url(#39c3a177cc)"><g clip-path="url(#ba12d57a1a)"><path fill="#d9d9d9" d="M 0.890625 0.589844 L 44.929688 0.589844 L 44.929688 38.425781 L 0.890625 38.425781 Z M 0.890625 0.589844 " fill-opacity="1" fill-rule="nonzero"/></g></g></g></g></g></g><g clip-path="url(#8f2ab249e1)"><g clip-path="url(#308ae975ef)"><g transform="matrix(1, 0, 0, 1, -0.000000000000007105, 19)"><g clip-path="url(#df9084beaf)"><g clip-path="url(#705b55e0a5)"><g clip-path="url(#59c7fe548f)"><path fill="#d9d9d9" d="M 0.492188 0.507812 L 44.53125 0.507812 L 44.53125 38.34375 L 0.492188 38.34375 Z M 0.492188 0.507812 " fill-opacity="1" fill-rule="nonzero"/></g></g></g></g></g></g><g clip-path="url(#85be420c96)"><g clip-path="url(#f1cb8a692e)"><g transform="matrix(1, 0, 0, 1, -0.000000000000007105, 58)"><g clip-path="url(#7549a362bf)"><g clip-path="url(#c63aa59c3e)"><g clip-path="url(#535c4a6b05)"><path fill="#d9d9d9" d="M 0.492188 0.664062 L 44.53125 0.664062 L 44.53125 38.5 L 0.492188 38.5 Z M 0.492188 0.664062 " fill-opacity="1" fill-rule="nonzero"/></g></g></g></g></g></g><g clip-path="url(#eb44187005)"><g clip-path="url(#97ebe26647)"><g transform="matrix(1, 0, 0, 1, 34, 77)"><g clip-path="url(#bf9a6a8bba)"><g clip-path="url(#79cc5f9a6c)"><g clip-path="url(#87737554e7)"><path fill="#d9d9d9" d="M 0.890625 0.582031 L 44.929688 0.582031 L 44.929688 38.417969 L 0.890625 38.417969 Z M 0.890625 0.582031 " fill-opacity="1" fill-rule="nonzero"/></g></g></g></g></g></g><g clip-path="url(#2f7a11f808)"><g clip-path="url(#edb66bdbdc)"><g transform="matrix(1, 0, 0, 1, 69, 19)"><g clip-path="url(#4db2606ef1)"><g clip-path="url(#9c44a3546b)"><g clip-path="url(#f8375fdd8a)"><path fill="#d9d9d9" d="M 0.269531 0.507812 L 44.3125 0.507812 L 44.3125 38.34375 L 0.269531 38.34375 Z M 0.269531 0.507812 " fill-opacity="1" fill-rule="nonzero"/></g></g></g></g></g></g><g clip-path="url(#ab59115c3e)"><g clip-path="url(#f968cb6eb6)"><path stroke-linecap="butt" transform="matrix(0.440033, 0, 0, 0.440033, 69.271818, 58.664435)" fill="none" stroke-linejoin="miter" d="M 100.040455 42.982388 L 75.024604 85.965622 L 25.010655 85.965622 L 0.00368051 42.982388 L 25.010655 -0.00084616 L 75.024604 -0.00084616 Z M 100.040455 42.982388 " stroke="#daa520" stroke-width="10.1513" stroke-opacity="1" stroke-miterlimit="4"/></g></g></g></g><g fill="#d9d9d9" fill-opacity="1"><g transform="translate(147.77705, 69.30302)"><g><path d="M 7.890625 -17.71875 C 10.171875 -17.71875 11.835938 -17.222656 12.890625 -16.234375 C 13.941406 -15.253906 14.46875 -13.90625 14.46875 -12.1875 C 14.46875 -11.414062 14.347656 -10.675781 14.109375 -9.96875 C 13.878906 -9.257812 13.5 -8.628906 12.96875 -8.078125 C 12.4375 -7.523438 11.726562 -7.085938 10.84375 -6.765625 C 9.96875 -6.453125 8.882812 -6.296875 7.59375 -6.296875 L 5.984375 -6.296875 L 5.984375 0 L 2.234375 0 L 2.234375 -17.71875 Z M 7.6875 -14.640625 L 5.984375 -14.640625 L 5.984375 -9.375 L 7.21875 -9.375 C 7.925781 -9.375 8.535156 -9.46875 9.046875 -9.65625 C 9.566406 -9.84375 9.96875 -10.132812 10.25 -10.53125 C 10.53125 -10.925781 10.671875 -11.4375 10.671875 -12.0625 C 10.671875 -12.925781 10.425781 -13.570312 9.9375 -14 C 9.457031 -14.425781 8.707031 -14.640625 7.6875 -14.640625 Z M 7.6875 -14.640625 "/></g></g></g><g fill="#d9d9d9" fill-opacity="1"><g transform="translate(168.320668, 69.30302)"><g><path d="M 7.390625 -17.71875 C 8.992188 -17.71875 10.316406 -17.519531 11.359375 -17.125 C 12.410156 -16.738281 13.191406 -16.15625 13.703125 -15.375 C 14.210938 -14.59375 14.46875 -13.601562 14.46875 -12.40625 C 14.46875 -11.59375 14.3125 -10.882812 14 -10.28125 C 13.695312 -9.675781 13.296875 -9.164062 12.796875 -8.75 C 12.296875 -8.332031 11.753906 -7.988281 11.171875 -7.71875 L 16.375 0 L 12.21875 0 L 7.984375 -6.796875 L 5.984375 -6.796875 L 5.984375 0 L 2.234375 0 L 2.234375 -17.71875 Z M 7.125 -14.640625 L 5.984375 -14.640625 L 5.984375 -9.84375 L 7.203125 -9.84375 C 8.441406 -9.84375 9.328125 -10.050781 9.859375 -10.46875 C 10.398438 -10.882812 10.671875 -11.5 10.671875 -12.3125 C 10.671875 -13.144531 10.378906 -13.738281 9.796875 -14.09375 C 9.222656 -14.457031 8.332031 -14.640625 7.125 -14.640625 Z M 7.125 -14.640625 "/></g></g></g><g fill="#d9d9d9" fill-opacity="1"><g transform="translate(189.663901, 69.30302)"><g><path d="M 2.234375 0 L 2.234375 -17.71875 L 5.984375 -17.71875 L 5.984375 0 Z M 2.234375 0 "/></g></g></g><g fill="#d9d9d9" fill-opacity="1"><g transform="translate(202.841368, 69.30302)"><g><path d="M 18.3125 -8.875 C 18.3125 -7.507812 18.140625 -6.269531 17.796875 -5.15625 C 17.453125 -4.039062 16.9375 -3.078125 16.25 -2.265625 C 15.5625 -1.453125 14.6875 -0.828125 13.625 -0.390625 C 12.570312 0.0351562 11.320312 0.25 9.875 0.25 C 8.425781 0.25 7.171875 0.0351562 6.109375 -0.390625 C 5.054688 -0.828125 4.179688 -1.453125 3.484375 -2.265625 C 2.796875 -3.078125 2.28125 -4.039062 1.9375 -5.15625 C 1.601562 -6.28125 1.4375 -7.53125 1.4375 -8.90625 C 1.4375 -10.738281 1.738281 -12.332031 2.34375 -13.6875 C 2.945312 -15.050781 3.875 -16.109375 5.125 -16.859375 C 6.375 -17.609375 7.960938 -17.984375 9.890625 -17.984375 C 11.816406 -17.984375 13.398438 -17.609375 14.640625 -16.859375 C 15.878906 -16.109375 16.800781 -15.050781 17.40625 -13.6875 C 18.007812 -12.320312 18.3125 -10.71875 18.3125 -8.875 Z M 5.375 -8.875 C 5.375 -7.644531 5.53125 -6.582031 5.84375 -5.6875 C 6.15625 -4.789062 6.640625 -4.101562 7.296875 -3.625 C 7.960938 -3.144531 8.820312 -2.90625 9.875 -2.90625 C 10.9375 -2.90625 11.796875 -3.144531 12.453125 -3.625 C 13.117188 -4.101562 13.601562 -4.789062 13.90625 -5.6875 C 14.21875 -6.582031 14.375 -7.644531 14.375 -8.875 C 14.375 -10.738281 14.023438 -12.203125 13.328125 -13.265625 C 12.628906 -14.328125 11.484375 -14.859375 9.890625 -14.859375 C 8.835938 -14.859375 7.976562 -14.617188 7.3125 -14.140625 C 6.644531 -13.660156 6.15625 -12.972656 5.84375 -12.078125 C 5.53125 -11.191406 5.375 -10.125 5.375 -8.875 Z M 5.375 -8.875 "/></g></g></g><g fill="#d9d9d9" fill-opacity="1"><g transform="translate(227.552676, 69.30302)"><g><path d="M 7.390625 -17.71875 C 8.992188 -17.71875 10.316406 -17.519531 11.359375 -17.125 C 12.410156 -16.738281 13.191406 -16.15625 13.703125 -15.375 C 14.210938 -14.59375 14.46875 -13.601562 14.46875 -12.40625 C 14.46875 -11.59375 14.3125 -10.882812 14 -10.28125 C 13.695312 -9.675781 13.296875 -9.164062 12.796875 -8.75 C 12.296875 -8.332031 11.753906 -7.988281 11.171875 -7.71875 L 16.375 0 L 12.21875 0 L 7.984375 -6.796875 L 5.984375 -6.796875 L 5.984375 0 L 2.234375 0 L 2.234375 -17.71875 Z M 7.125 -14.640625 L 5.984375 -14.640625 L 5.984375 -9.84375 L 7.203125 -9.84375 C 8.441406 -9.84375 9.328125 -10.050781 9.859375 -10.46875 C 10.398438 -10.882812 10.671875 -11.5 10.671875 -12.3125 C 10.671875 -13.144531 10.378906 -13.738281 9.796875 -14.09375 C 9.222656 -14.457031 8.332031 -14.640625 7.125 -14.640625 Z M 7.125 -14.640625 "/></g></g></g><g fill="#d9d9d9" fill-opacity="1"><g transform="translate(248.895909, 69.30302)"><g><path d="M 2.234375 0 L 2.234375 -17.71875 L 5.984375 -17.71875 L 5.984375 0 Z M 2.234375 0 "/></g></g></g><g fill="#d9d9d9" fill-opacity="1"><g transform="translate(262.073376, 69.30302)"><g><path d="M 9.0625 0 L 5.3125 0 L 5.3125 -14.59375 L 0.5 -14.59375 L 0.5 -17.71875 L 13.875 -17.71875 L 13.875 -14.59375 L 9.0625 -14.59375 Z M 9.0625 0 "/></g></g></g><g fill="#d9d9d9" fill-opacity="1"><g transform="translate(281.405456, 69.30302)"><g><path d="M 12.4375 0 L 2.234375 0 L 2.234375 -17.71875 L 12.4375 -17.71875 L 12.4375 -14.640625 L 5.984375 -14.640625 L 5.984375 -10.75 L 11.984375 -10.75 L 11.984375 -7.671875 L 5.984375 -7.671875 L 5.984375 -3.109375 L 12.4375 -3.109375 Z M 12.4375 0 "/></g></g></g><g fill="#d9d9d9" fill-opacity="1"><g transform="translate(300.265041, 69.30302)"><g><path d="M 9.75 -14.84375 C 9.03125 -14.84375 8.394531 -14.703125 7.84375 -14.421875 C 7.289062 -14.140625 6.828125 -13.738281 6.453125 -13.21875 C 6.078125 -12.695312 5.789062 -12.0625 5.59375 -11.3125 C 5.40625 -10.570312 5.3125 -9.738281 5.3125 -8.8125 C 5.3125 -7.5625 5.460938 -6.492188 5.765625 -5.609375 C 6.078125 -4.722656 6.5625 -4.046875 7.21875 -3.578125 C 7.875 -3.117188 8.71875 -2.890625 9.75 -2.890625 C 10.46875 -2.890625 11.1875 -2.96875 11.90625 -3.125 C 12.632812 -3.289062 13.421875 -3.519531 14.265625 -3.8125 L 14.265625 -0.671875 C 13.484375 -0.347656 12.710938 -0.113281 11.953125 0.03125 C 11.191406 0.175781 10.34375 0.25 9.40625 0.25 C 7.570312 0.25 6.066406 -0.125 4.890625 -0.875 C 3.722656 -1.632812 2.851562 -2.695312 2.28125 -4.0625 C 1.71875 -5.425781 1.4375 -7.015625 1.4375 -8.828125 C 1.4375 -10.171875 1.617188 -11.398438 1.984375 -12.515625 C 2.347656 -13.628906 2.878906 -14.59375 3.578125 -15.40625 C 4.285156 -16.226562 5.15625 -16.859375 6.1875 -17.296875 C 7.21875 -17.742188 8.40625 -17.96875 9.75 -17.96875 C 10.632812 -17.96875 11.519531 -17.851562 12.40625 -17.625 C 13.289062 -17.40625 14.132812 -17.101562 14.9375 -16.71875 L 13.734375 -13.671875 C 13.066406 -13.984375 12.394531 -14.253906 11.71875 -14.484375 C 11.050781 -14.722656 10.394531 -14.84375 9.75 -14.84375 Z M 9.75 -14.84375 "/></g></g></g><g fill="#d9d9d9" fill-opacity="1"><g transform="translate(321.038857, 69.30302)"><g><path d="M 16.75 0 L 13 0 L 13 -7.640625 L 5.984375 -7.640625 L 5.984375 0 L 2.234375 0 L 2.234375 -17.71875 L 5.984375 -17.71875 L 5.984375 -10.765625 L 13 -10.765625 L 13 -17.71875 L 16.75 -17.71875 Z M 16.75 0 "/></g></g></g><g fill="#daa520" fill-opacity="1"><g transform="translate(152.611565, 88.841012)"><g><path d="M 2.671875 0 L 1.5 0 L 1.5 -9.921875 L 2.671875 -9.921875 Z M 2.671875 0 "/></g></g></g><g fill="#daa520" fill-opacity="1"><g transform="translate(159.56184, 88.841012)"><g><path d="M 2.640625 0 L 1.5 0 L 1.5 -9.921875 L 2.9375 -9.921875 L 7.765625 -2.34375 L 7.9375 -2.359375 L 7.9375 -9.921875 L 9.0625 -9.921875 L 9.0625 0 L 7.84375 0 L 2.8125 -8.109375 L 2.640625 -8.078125 Z M 2.640625 0 "/></g></g></g><g fill="#daa520" fill-opacity="1"><g transform="translate(172.914215, 88.841012)"><g><path d="M 4.703125 -9.921875 C 5.710938 -9.921875 6.578125 -9.738281 7.296875 -9.375 C 8.015625 -9.019531 8.566406 -8.472656 8.953125 -7.734375 C 9.347656 -6.992188 9.546875 -6.066406 9.546875 -4.953125 C 9.546875 -3.847656 9.347656 -2.925781 8.953125 -2.1875 C 8.566406 -1.445312 8.015625 -0.894531 7.296875 -0.53125 C 6.578125 -0.175781 5.710938 0 4.703125 0 L 1.5 0 L 1.5 -9.921875 Z M 4.59375 -0.984375 C 5.414062 -0.984375 6.097656 -1.113281 6.640625 -1.375 C 7.179688 -1.632812 7.59375 -2.054688 7.875 -2.640625 C 8.15625 -3.222656 8.296875 -3.992188 8.296875 -4.953125 C 8.296875 -5.921875 8.15625 -6.695312 7.875 -7.28125 C 7.59375 -7.863281 7.179688 -8.28125 6.640625 -8.53125 C 6.097656 -8.789062 5.414062 -8.921875 4.59375 -8.921875 L 2.671875 -8.921875 L 2.671875 -0.984375 Z M 4.59375 -0.984375 "/></g></g></g><g fill="#daa520" fill-opacity="1"><g transform="translate(186.232682, 88.841012)"><g><path d="M 5.4375 0.140625 C 4.582031 0.140625 3.816406 -0.0390625 3.140625 -0.40625 C 2.472656 -0.78125 1.945312 -1.347656 1.5625 -2.109375 C 1.175781 -2.867188 0.984375 -3.816406 0.984375 -4.953125 C 0.984375 -6.085938 1.175781 -7.035156 1.5625 -7.796875 C 1.945312 -8.566406 2.472656 -9.132812 3.140625 -9.5 C 3.816406 -9.875 4.582031 -10.0625 5.4375 -10.0625 C 6.300781 -10.0625 7.066406 -9.875 7.734375 -9.5 C 8.398438 -9.132812 8.925781 -8.566406 9.3125 -7.796875 C 9.695312 -7.035156 9.890625 -6.085938 9.890625 -4.953125 C 9.890625 -3.816406 9.695312 -2.867188 9.3125 -2.109375 C 8.925781 -1.347656 8.398438 -0.78125 7.734375 -0.40625 C 7.066406 -0.0390625 6.300781 0.140625 5.4375 0.140625 Z M 5.4375 -0.9375 C 6.46875 -0.9375 7.257812 -1.257812 7.8125 -1.90625 C 8.363281 -2.550781 8.640625 -3.566406 8.640625 -4.953125 C 8.640625 -6.347656 8.363281 -7.367188 7.8125 -8.015625 C 7.257812 -8.660156 6.46875 -8.984375 5.4375 -8.984375 C 3.300781 -8.984375 2.234375 -7.640625 2.234375 -4.953125 C 2.234375 -2.273438 3.300781 -0.9375 5.4375 -0.9375 Z M 5.4375 -0.9375 "/></g></g></g><g fill="#daa520" fill-opacity="1"><g transform="translate(199.890243, 88.841012)"><g><path d="M 2.640625 0 L 1.5 0 L 1.5 -9.921875 L 2.9375 -9.921875 L 7.765625 -2.34375 L 7.9375 -2.359375 L 7.9375 -9.921875 L 9.0625 -9.921875 L 9.0625 0 L 7.84375 0 L 2.8125 -8.109375 L 2.640625 -8.078125 Z M 2.640625 0 "/></g></g></g><g fill="#daa520" fill-opacity="1"><g transform="translate(213.242618, 88.841012)"><g><path d="M 2.671875 -4.671875 L 2.671875 -0.96875 L 7.71875 -0.96875 L 7.71875 0 L 1.5 0 L 1.5 -9.921875 L 7.609375 -9.921875 L 7.609375 -8.953125 L 2.671875 -8.953125 L 2.671875 -5.640625 L 7.03125 -5.640625 L 7.03125 -4.671875 Z M 2.671875 -4.671875 "/></g></g></g><g fill="#daa520" fill-opacity="1"><g transform="translate(224.397663, 88.841012)"><g><path d="M 4.328125 0.140625 C 3.703125 0.140625 3.140625 0.0546875 2.640625 -0.109375 C 2.148438 -0.273438 1.738281 -0.492188 1.40625 -0.765625 C 1.082031 -1.046875 0.835938 -1.351562 0.671875 -1.6875 L 1.3125 -2.46875 L 1.484375 -2.46875 C 2.097656 -1.425781 3.046875 -0.90625 4.328125 -0.90625 C 5.078125 -0.90625 5.632812 -1.0625 6 -1.375 C 6.363281 -1.6875 6.546875 -2.117188 6.546875 -2.671875 C 6.546875 -3.003906 6.484375 -3.28125 6.359375 -3.5 C 6.242188 -3.726562 6.046875 -3.921875 5.765625 -4.078125 C 5.492188 -4.242188 5.117188 -4.382812 4.640625 -4.5 L 3.484375 -4.78125 C 2.617188 -4.988281 1.984375 -5.320312 1.578125 -5.78125 C 1.171875 -6.238281 0.96875 -6.816406 0.96875 -7.515625 C 0.96875 -8.003906 1.09375 -8.441406 1.34375 -8.828125 C 1.59375 -9.210938 1.960938 -9.515625 2.453125 -9.734375 C 2.941406 -9.953125 3.523438 -10.0625 4.203125 -10.0625 C 4.953125 -10.0625 5.582031 -9.953125 6.09375 -9.734375 C 6.601562 -9.523438 7.015625 -9.210938 7.328125 -8.796875 L 6.75 -8.03125 L 6.578125 -8.03125 C 6.296875 -8.375 5.957031 -8.628906 5.5625 -8.796875 C 5.175781 -8.960938 4.722656 -9.046875 4.203125 -9.046875 C 3.515625 -9.046875 2.992188 -8.910156 2.640625 -8.640625 C 2.296875 -8.367188 2.125 -8 2.125 -7.53125 C 2.125 -7.082031 2.25 -6.726562 2.5 -6.46875 C 2.757812 -6.207031 3.195312 -6.003906 3.8125 -5.859375 L 5 -5.5625 C 5.957031 -5.34375 6.648438 -5 7.078125 -4.53125 C 7.515625 -4.0625 7.734375 -3.460938 7.734375 -2.734375 C 7.734375 -2.171875 7.609375 -1.671875 7.359375 -1.234375 C 7.109375 -0.804688 6.726562 -0.46875 6.21875 -0.21875 C 5.707031 0.0195312 5.078125 0.140625 4.328125 0.140625 Z M 4.328125 0.140625 "/></g></g></g><g fill="#daa520" fill-opacity="1"><g transform="translate(235.674781, 88.841012)"><g><path d="M 2.671875 0 L 1.5 0 L 1.5 -9.921875 L 2.671875 -9.921875 Z M 2.671875 0 "/></g></g></g><g fill="#daa520" fill-opacity="1"><g transform="translate(242.625056, 88.841012)"><g><path d="M 8.921875 0 L 7.671875 0 L 6.765625 -2.71875 L 2.53125 -2.71875 L 1.609375 0 L 0.390625 0 L 3.859375 -9.921875 L 5.46875 -9.921875 Z M 4.5625 -8.71875 L 2.859375 -3.703125 L 6.4375 -3.703125 L 4.734375 -8.71875 Z M 4.5625 -8.71875 "/></g></g></g><g fill="#daa520" fill-opacity="1"><g transform="translate(254.722783, 88.841012)"><g/></g></g><g fill="#daa520" fill-opacity="1"><g transform="translate(260.906704, 88.841012)"><g><path d="M 5.4375 0.140625 C 4.582031 0.140625 3.816406 -0.0390625 3.140625 -0.40625 C 2.472656 -0.78125 1.945312 -1.347656 1.5625 -2.109375 C 1.175781 -2.867188 0.984375 -3.816406 0.984375 -4.953125 C 0.984375 -6.085938 1.175781 -7.035156 1.5625 -7.796875 C 1.945312 -8.566406 2.472656 -9.132812 3.140625 -9.5 C 3.816406 -9.875 4.582031 -10.0625 5.4375 -10.0625 C 6.300781 -10.0625 7.066406 -9.875 7.734375 -9.5 C 8.398438 -9.132812 8.925781 -8.566406 9.3125 -7.796875 C 9.695312 -7.035156 9.890625 -6.085938 9.890625 -4.953125 C 9.890625 -3.816406 9.695312 -2.867188 9.3125 -2.109375 C 8.925781 -1.347656 8.398438 -0.78125 7.734375 -0.40625 C 7.066406 -0.0390625 6.300781 0.140625 5.4375 0.140625 Z M 5.4375 -0.9375 C 6.46875 -0.9375 7.257812 -1.257812 7.8125 -1.90625 C 8.363281 -2.550781 8.640625 -3.566406 8.640625 -4.953125 C 8.640625 -6.347656 8.363281 -7.367188 7.8125 -8.015625 C 7.257812 -8.660156 6.46875 -8.984375 5.4375 -8.984375 C 3.300781 -8.984375 2.234375 -7.640625 2.234375 -4.953125 C 2.234375 -2.273438 3.300781 -0.9375 5.4375 -0.9375 Z M 5.4375 -0.9375 "/></g></g></g><g fill="#daa520" fill-opacity="1"><g transform="translate(274.564265, 88.841012)"><g><path d="M 5.046875 -9.921875 C 5.734375 -9.921875 6.316406 -9.796875 6.796875 -9.546875 C 7.285156 -9.304688 7.65625 -8.957031 7.90625 -8.5 C 8.164062 -8.039062 8.296875 -7.503906 8.296875 -6.890625 C 8.296875 -6.273438 8.164062 -5.742188 7.90625 -5.296875 C 7.65625 -4.847656 7.285156 -4.5 6.796875 -4.25 C 6.316406 -4 5.734375 -3.875 5.046875 -3.875 L 2.671875 -3.875 L 2.671875 0 L 1.5 0 L 1.5 -9.921875 Z M 5.015625 -4.875 C 6.390625 -4.875 7.078125 -5.546875 7.078125 -6.890625 C 7.078125 -8.242188 6.390625 -8.921875 5.015625 -8.921875 L 2.671875 -8.921875 L 2.671875 -4.875 Z M 5.015625 -4.875 "/></g></g></g><g fill="#daa520" fill-opacity="1"><g transform="translate(286.383935, 88.841012)"><g><path d="M 7.734375 -9.921875 L 7.734375 -8.921875 L 4.625 -8.921875 L 4.625 0 L 3.46875 0 L 3.46875 -8.921875 L 0.359375 -8.921875 L 0.359375 -9.921875 Z M 7.734375 -9.921875 "/></g></g></g><g fill="#daa520" fill-opacity="1"><g transform="translate(297.260922, 88.841012)"><g><path d="M 2.671875 0 L 1.5 0 L 1.5 -9.921875 L 2.671875 -9.921875 Z M 2.671875 0 "/></g></g></g><g fill="#daa520" fill-opacity="1"><g transform="translate(304.211197, 88.841012)"><g><path d="M 2.578125 0 L 1.5 0 L 1.5 -9.921875 L 3.234375 -9.921875 L 6.234375 -1.515625 L 6.375 -1.515625 L 9.375 -9.921875 L 11.046875 -9.921875 L 11.046875 0 L 9.9375 0 L 9.9375 -8.09375 L 9.78125 -8.125 L 6.84375 0 L 5.6875 0 L 2.75 -8.125 L 2.578125 -8.09375 Z M 2.578125 0 "/></g></g></g><g fill="#daa520" fill-opacity="1"><g transform="translate(319.543883, 88.841012)"><g><path d="M 8.921875 0 L 7.671875 0 L 6.765625 -2.71875 L 2.53125 -2.71875 L 1.609375 0 L 0.390625 0 L 3.859375 -9.921875 L 5.46875 -9.921875 Z M 4.5625 -8.71875 L 2.859375 -3.703125 L 6.4375 -3.703125 L 4.734375 -8.71875 Z M 4.5625 -8.71875 "/></g></g></g></svg>