<svg xmlns="http://www.w3.org/2000/svg" xmlns:xlink="http://www.w3.org/1999/xlink" width="500" zoomAndPan="magnify" viewBox="0 0 375 374.999991" height="500" preserveAspectRatio="xMidYMid meet" version="1.0"><defs><g/><clipPath id="c1b3d9d881"><path d="M 149.996094 55.59375 L 225.0625 55.59375 L 225.0625 120.082031 L 149.996094 120.082031 Z M 149.996094 55.59375 " clip-rule="nonzero"/></clipPath><clipPath id="472ca7486c"><path d="M 225.035156 87.835938 L 206.277344 120.082031 L 168.757812 120.082031 L 149.996094 87.835938 L 168.757812 55.59375 L 206.277344 55.59375 Z M 225.035156 87.835938 " clip-rule="nonzero"/></clipPath><clipPath id="769b0019cb"><path d="M 0.996094 0.59375 L 76.0625 0.59375 L 76.0625 65.082031 L 0.996094 65.082031 Z M 0.996094 0.59375 " clip-rule="nonzero"/></clipPath><clipPath id="75f6a512e1"><path d="M 76.035156 32.835938 L 57.277344 65.082031 L 19.757812 65.082031 L 0.996094 32.835938 L 19.757812 0.59375 L 57.277344 0.59375 Z M 76.035156 32.835938 " clip-rule="nonzero"/></clipPath><clipPath id="987a7ff4fd"><rect x="0" width="77" y="0" height="66"/></clipPath><clipPath id="706f829d69"><path d="M 91.367188 87.835938 L 166.433594 87.835938 L 166.433594 152.324219 L 91.367188 152.324219 Z M 91.367188 87.835938 " clip-rule="nonzero"/></clipPath><clipPath id="f926d819fd"><path d="M 166.40625 120.082031 L 147.644531 152.324219 L 110.125 152.324219 L 91.367188 120.082031 L 110.125 87.835938 L 147.644531 87.835938 Z M 166.40625 120.082031 " clip-rule="nonzero"/></clipPath><clipPath id="c399a7eaf7"><path d="M 0.367188 0.835938 L 75.433594 0.835938 L 75.433594 65.324219 L 0.367188 65.324219 Z M 0.367188 0.835938 " clip-rule="nonzero"/></clipPath><clipPath id="1ba407ebf6"><path d="M 75.40625 33.082031 L 56.644531 65.324219 L 19.125 65.324219 L 0.367188 33.082031 L 19.125 0.835938 L 56.644531 0.835938 Z M 75.40625 33.082031 " clip-rule="nonzero"/></clipPath><clipPath id="2967ba4969"><rect x="0" width="76" y="0" height="66"/></clipPath><clipPath id="863b5802a8"><path d="M 91.367188 154.574219 L 166.433594 154.574219 L 166.433594 219.0625 L 91.367188 219.0625 Z M 91.367188 154.574219 " clip-rule="nonzero"/></clipPath><clipPath id="31b8247cc6"><path d="M 166.40625 186.820312 L 147.644531 219.0625 L 110.125 219.0625 L 91.367188 186.820312 L 110.125 154.574219 L 147.644531 154.574219 Z M 166.40625 186.820312 " clip-rule="nonzero"/></clipPath><clipPath id="98e7f7980d"><path d="M 0.367188 0.574219 L 75.433594 0.574219 L 75.433594 65.0625 L 0.367188 65.0625 Z M 0.367188 0.574219 " clip-rule="nonzero"/></clipPath><clipPath id="5f63bdf4f0"><path d="M 75.40625 32.820312 L 56.644531 65.0625 L 19.125 65.0625 L 0.367188 32.820312 L 19.125 0.574219 L 56.644531 0.574219 Z M 75.40625 32.820312 " clip-rule="nonzero"/></clipPath><clipPath id="fa11a0bd3f"><rect x="0" width="76" y="0" height="66"/></clipPath><clipPath id="a1e5e42dcf"><path d="M 149.996094 186.820312 L 225.0625 186.820312 L 225.0625 251.304688 L 149.996094 251.304688 Z M 149.996094 186.820312 " clip-rule="nonzero"/></clipPath><clipPath id="0e92c6f307"><path d="M 225.035156 219.0625 L 206.277344 251.304688 L 168.757812 251.304688 L 149.996094 219.0625 L 168.757812 186.820312 L 206.277344 186.820312 Z M 225.035156 219.0625 " clip-rule="nonzero"/></clipPath><clipPath id="d713e27d85"><path d="M 0.996094 0.820312 L 76.0625 0.820312 L 76.0625 65.304688 L 0.996094 65.304688 Z M 0.996094 0.820312 " clip-rule="nonzero"/></clipPath><clipPath id="225f93c4f7"><path d="M 76.035156 33.0625 L 57.277344 65.304688 L 19.757812 65.304688 L 0.996094 33.0625 L 19.757812 0.820312 L 57.277344 0.820312 Z M 76.035156 33.0625 " clip-rule="nonzero"/></clipPath><clipPath id="4526beadf9"><rect x="0" width="77" y="0" height="66"/></clipPath><clipPath id="1105a7d1cb"><path d="M 208.59375 87.835938 L 283.660156 87.835938 L 283.660156 152.324219 L 208.59375 152.324219 Z M 208.59375 87.835938 " clip-rule="nonzero"/></clipPath><clipPath id="cb7b1f5316"><path d="M 283.632812 120.082031 L 264.875 152.324219 L 227.355469 152.324219 L 208.59375 120.082031 L 227.355469 87.835938 L 264.875 87.835938 Z M 283.632812 120.082031 " clip-rule="nonzero"/></clipPath><clipPath id="9c7e86d7fb"><path d="M 0.59375 0.835938 L 75.660156 0.835938 L 75.660156 65.324219 L 0.59375 65.324219 Z M 0.59375 0.835938 " clip-rule="nonzero"/></clipPath><clipPath id="b678a77d0c"><path d="M 75.632812 33.082031 L 56.875 65.324219 L 19.355469 65.324219 L 0.59375 33.082031 L 19.355469 0.835938 L 56.875 0.835938 Z M 75.632812 33.082031 " clip-rule="nonzero"/></clipPath><clipPath id="d7ff4b11a0"><rect x="0" width="76" y="0" height="66"/></clipPath><clipPath id="683ab6c481"><path d="M 208.597656 154.574219 L 283.59375 154.574219 L 283.59375 219.050781 L 208.597656 219.050781 Z M 208.597656 154.574219 " clip-rule="nonzero"/></clipPath><clipPath id="53455875d5"><path d="M 283.625 186.8125 L 264.871094 219.050781 L 227.355469 219.050781 L 208.597656 186.8125 L 227.355469 154.574219 L 264.871094 154.574219 Z M 283.625 186.8125 " clip-rule="nonzero"/></clipPath></defs><g clip-path="url(#c1b3d9d881)"><g clip-path="url(#472ca7486c)"><g transform="matrix(1, 0, 0, 1, 149, 55)"><g clip-path="url(#987a7ff4fd)"><g clip-path="url(#769b0019cb)"><g clip-path="url(#75f6a512e1)"><path fill="#d9d9d9" d="M 0.996094 0.59375 L 76.0625 0.59375 L 76.0625 65.082031 L 0.996094 65.082031 Z M 0.996094 0.59375 " fill-opacity="1" fill-rule="nonzero"/></g></g></g></g></g></g><g clip-path="url(#706f829d69)"><g clip-path="url(#f926d819fd)"><g transform="matrix(1, 0, 0, 1, 91, 87)"><g clip-path="url(#2967ba4969)"><g clip-path="url(#c399a7eaf7)"><g clip-path="url(#1ba407ebf6)"><path fill="#d9d9d9" d="M 0.367188 0.835938 L 75.433594 0.835938 L 75.433594 65.324219 L 0.367188 65.324219 Z M 0.367188 0.835938 " fill-opacity="1" fill-rule="nonzero"/></g></g></g></g></g></g><g clip-path="url(#863b5802a8)"><g clip-path="url(#31b8247cc6)"><g transform="matrix(1, 0, 0, 1, 91, 154)"><g clip-path="url(#fa11a0bd3f)"><g clip-path="url(#98e7f7980d)"><g clip-path="url(#5f63bdf4f0)"><path fill="#d9d9d9" d="M 0.367188 0.574219 L 75.433594 0.574219 L 75.433594 65.0625 L 0.367188 65.0625 Z M 0.367188 0.574219 " fill-opacity="1" fill-rule="nonzero"/></g></g></g></g></g></g><g clip-path="url(#a1e5e42dcf)"><g clip-path="url(#0e92c6f307)"><g transform="matrix(1, 0, 0, 1, 149, 186)"><g clip-path="url(#4526beadf9)"><g clip-path="url(#d713e27d85)"><g clip-path="url(#225f93c4f7)"><path fill="#d9d9d9" d="M 0.996094 0.820312 L 76.0625 0.820312 L 76.0625 65.304688 L 0.996094 65.304688 Z M 0.996094 0.820312 " fill-opacity="1" fill-rule="nonzero"/></g></g></g></g></g></g><g clip-path="url(#1105a7d1cb)"><g clip-path="url(#cb7b1f5316)"><g transform="matrix(1, 0, 0, 1, 208, 87)"><g clip-path="url(#d7ff4b11a0)"><g clip-path="url(#9c7e86d7fb)"><g clip-path="url(#b678a77d0c)"><path fill="#d9d9d9" d="M 0.59375 0.835938 L 75.660156 0.835938 L 75.660156 65.324219 L 0.59375 65.324219 Z M 0.59375 0.835938 " fill-opacity="1" fill-rule="nonzero"/></g></g></g></g></g></g><g clip-path="url(#683ab6c481)"><g clip-path="url(#53455875d5)"><path stroke-linecap="butt" transform="matrix(0.75, 0, 0, 0.75, 208.598751, 154.576147)" fill="none" stroke-linejoin="miter" d="M 100.035012 42.98181 L 75.0298 85.966191 L 25.008961 85.966191 L -0.0014594 42.98181 L 25.008961 -0.00257053 L 75.0298 -0.00257053 Z M 100.035012 42.98181 " stroke="#daa520" stroke-width="10" stroke-opacity="1" stroke-miterlimit="4"/></g></g><g fill="#d9d9d9" fill-opacity="1"><g transform="translate(48.050001, 285.95544)"><g><path d="M 11.4375 -25.703125 C 14.757812 -25.703125 17.179688 -24.988281 18.703125 -23.5625 C 20.222656 -22.132812 20.984375 -20.175781 20.984375 -17.6875 C 20.984375 -16.5625 20.8125 -15.484375 20.46875 -14.453125 C 20.132812 -13.429688 19.582031 -12.519531 18.8125 -11.71875 C 18.050781 -10.925781 17.03125 -10.296875 15.75 -9.828125 C 14.46875 -9.367188 12.890625 -9.140625 11.015625 -9.140625 L 8.6875 -9.140625 L 8.6875 0 L 3.234375 0 L 3.234375 -25.703125 Z M 11.15625 -21.234375 L 8.6875 -21.234375 L 8.6875 -13.609375 L 10.484375 -13.609375 C 11.492188 -13.609375 12.375 -13.742188 13.125 -14.015625 C 13.875 -14.285156 14.453125 -14.707031 14.859375 -15.28125 C 15.273438 -15.851562 15.484375 -16.585938 15.484375 -17.484375 C 15.484375 -18.753906 15.128906 -19.695312 14.421875 -20.3125 C 13.722656 -20.925781 12.632812 -21.234375 11.15625 -21.234375 Z M 11.15625 -21.234375 "/></g></g></g><g fill="#d9d9d9" fill-opacity="1"><g transform="translate(77.855461, 285.95544)"><g><path d="M 10.71875 -25.703125 C 13.050781 -25.703125 14.976562 -25.421875 16.5 -24.859375 C 18.019531 -24.296875 19.144531 -23.445312 19.875 -22.3125 C 20.613281 -21.175781 20.984375 -19.738281 20.984375 -18 C 20.984375 -16.832031 20.757812 -15.804688 20.3125 -14.921875 C 19.875 -14.046875 19.289062 -13.300781 18.5625 -12.6875 C 17.832031 -12.082031 17.046875 -11.585938 16.203125 -11.203125 L 23.765625 0 L 17.71875 0 L 11.578125 -9.859375 L 8.6875 -9.859375 L 8.6875 0 L 3.234375 0 L 3.234375 -25.703125 Z M 10.34375 -21.234375 L 8.6875 -21.234375 L 8.6875 -14.296875 L 10.4375 -14.296875 C 12.25 -14.296875 13.539062 -14.597656 14.3125 -15.203125 C 15.09375 -15.804688 15.484375 -16.691406 15.484375 -17.859375 C 15.484375 -19.078125 15.0625 -19.941406 14.21875 -20.453125 C 13.382812 -20.972656 12.09375 -21.234375 10.34375 -21.234375 Z M 10.34375 -21.234375 "/></g></g></g><g fill="#d9d9d9" fill-opacity="1"><g transform="translate(108.821077, 285.95544)"><g><path d="M 3.234375 0 L 3.234375 -25.703125 L 8.6875 -25.703125 L 8.6875 0 Z M 3.234375 0 "/></g></g></g><g fill="#d9d9d9" fill-opacity="1"><g transform="translate(127.939038, 285.95544)"><g><path d="M 26.5625 -12.890625 C 26.5625 -10.910156 26.3125 -9.109375 25.8125 -7.484375 C 25.320312 -5.859375 24.578125 -4.457031 23.578125 -3.28125 C 22.578125 -2.113281 21.304688 -1.210938 19.765625 -0.578125 C 18.234375 0.046875 16.421875 0.359375 14.328125 0.359375 C 12.234375 0.359375 10.414062 0.046875 8.875 -0.578125 C 7.34375 -1.210938 6.070312 -2.113281 5.0625 -3.28125 C 4.0625 -4.457031 3.316406 -5.859375 2.828125 -7.484375 C 2.335938 -9.117188 2.09375 -10.929688 2.09375 -12.921875 C 2.09375 -15.578125 2.53125 -17.890625 3.40625 -19.859375 C 4.28125 -21.835938 5.625 -23.375 7.4375 -24.46875 C 9.25 -25.5625 11.554688 -26.109375 14.359375 -26.109375 C 17.148438 -26.109375 19.441406 -25.5625 21.234375 -24.46875 C 23.035156 -23.375 24.375 -21.835938 25.25 -19.859375 C 26.125 -17.878906 26.5625 -15.554688 26.5625 -12.890625 Z M 7.8125 -12.890625 C 7.8125 -11.097656 8.035156 -9.550781 8.484375 -8.25 C 8.929688 -6.957031 9.632812 -5.960938 10.59375 -5.265625 C 11.5625 -4.566406 12.804688 -4.21875 14.328125 -4.21875 C 15.867188 -4.21875 17.117188 -4.566406 18.078125 -5.265625 C 19.046875 -5.960938 19.75 -6.957031 20.1875 -8.25 C 20.625 -9.550781 20.84375 -11.097656 20.84375 -12.890625 C 20.84375 -15.578125 20.335938 -17.691406 19.328125 -19.234375 C 18.328125 -20.785156 16.671875 -21.5625 14.359375 -21.5625 C 12.828125 -21.5625 11.578125 -21.210938 10.609375 -20.515625 C 9.640625 -19.828125 8.929688 -18.832031 8.484375 -17.53125 C 8.035156 -16.238281 7.8125 -14.691406 7.8125 -12.890625 Z M 7.8125 -12.890625 "/></g></g></g><g fill="#d9d9d9" fill-opacity="1"><g transform="translate(163.791372, 285.95544)"><g><path d="M 10.71875 -25.703125 C 13.050781 -25.703125 14.976562 -25.421875 16.5 -24.859375 C 18.019531 -24.296875 19.144531 -23.445312 19.875 -22.3125 C 20.613281 -21.175781 20.984375 -19.738281 20.984375 -18 C 20.984375 -16.832031 20.757812 -15.804688 20.3125 -14.921875 C 19.875 -14.046875 19.289062 -13.300781 18.5625 -12.6875 C 17.832031 -12.082031 17.046875 -11.585938 16.203125 -11.203125 L 23.765625 0 L 17.71875 0 L 11.578125 -9.859375 L 8.6875 -9.859375 L 8.6875 0 L 3.234375 0 L 3.234375 -25.703125 Z M 10.34375 -21.234375 L 8.6875 -21.234375 L 8.6875 -14.296875 L 10.4375 -14.296875 C 12.25 -14.296875 13.539062 -14.597656 14.3125 -15.203125 C 15.09375 -15.804688 15.484375 -16.691406 15.484375 -17.859375 C 15.484375 -19.078125 15.0625 -19.941406 14.21875 -20.453125 C 13.382812 -20.972656 12.09375 -21.234375 10.34375 -21.234375 Z M 10.34375 -21.234375 "/></g></g></g><g fill="#d9d9d9" fill-opacity="1"><g transform="translate(194.756988, 285.95544)"><g><path d="M 3.234375 0 L 3.234375 -25.703125 L 8.6875 -25.703125 L 8.6875 0 Z M 3.234375 0 "/></g></g></g><g fill="#d9d9d9" fill-opacity="1"><g transform="translate(213.874949, 285.95544)"><g><path d="M 13.15625 0 L 7.703125 0 L 7.703125 -21.171875 L 0.71875 -21.171875 L 0.71875 -25.703125 L 20.125 -25.703125 L 20.125 -21.171875 L 13.15625 -21.171875 Z M 13.15625 0 "/></g></g></g><g fill="#d9d9d9" fill-opacity="1"><g transform="translate(241.922608, 285.95544)"><g><path d="M 18.03125 0 L 3.234375 0 L 3.234375 -25.703125 L 18.03125 -25.703125 L 18.03125 -21.234375 L 8.6875 -21.234375 L 8.6875 -15.59375 L 17.390625 -15.59375 L 17.390625 -11.125 L 8.6875 -11.125 L 8.6875 -4.5 L 18.03125 -4.5 Z M 18.03125 0 "/></g></g></g><g fill="#d9d9d9" fill-opacity="1"><g transform="translate(269.284697, 285.95544)"><g><path d="M 14.15625 -21.53125 C 13.113281 -21.53125 12.1875 -21.328125 11.375 -20.921875 C 10.570312 -20.523438 9.898438 -19.941406 9.359375 -19.171875 C 8.816406 -18.410156 8.40625 -17.488281 8.125 -16.40625 C 7.84375 -15.332031 7.703125 -14.125 7.703125 -12.78125 C 7.703125 -10.96875 7.925781 -9.414062 8.375 -8.125 C 8.820312 -6.84375 9.519531 -5.863281 10.46875 -5.1875 C 11.425781 -4.519531 12.65625 -4.1875 14.15625 -4.1875 C 15.195312 -4.1875 16.238281 -4.300781 17.28125 -4.53125 C 18.332031 -4.769531 19.472656 -5.101562 20.703125 -5.53125 L 20.703125 -0.96875 C 19.566406 -0.5 18.445312 -0.160156 17.34375 0.046875 C 16.25 0.253906 15.015625 0.359375 13.640625 0.359375 C 10.992188 0.359375 8.816406 -0.1875 7.109375 -1.28125 C 5.398438 -2.382812 4.132812 -3.921875 3.3125 -5.890625 C 2.5 -7.867188 2.09375 -10.175781 2.09375 -12.8125 C 2.09375 -14.757812 2.351562 -16.539062 2.875 -18.15625 C 3.40625 -19.769531 4.179688 -21.171875 5.203125 -22.359375 C 6.222656 -23.546875 7.484375 -24.457031 8.984375 -25.09375 C 10.484375 -25.738281 12.207031 -26.0625 14.15625 -26.0625 C 15.425781 -26.0625 16.703125 -25.898438 17.984375 -25.578125 C 19.273438 -25.265625 20.503906 -24.828125 21.671875 -24.265625 L 19.921875 -19.828125 C 18.953125 -20.285156 17.984375 -20.679688 17.015625 -21.015625 C 16.046875 -21.359375 15.09375 -21.53125 14.15625 -21.53125 Z M 14.15625 -21.53125 "/></g></g></g><g fill="#d9d9d9" fill-opacity="1"><g transform="translate(299.42413, 285.95544)"><g><path d="M 24.296875 0 L 18.859375 0 L 18.859375 -11.09375 L 8.6875 -11.09375 L 8.6875 0 L 3.234375 0 L 3.234375 -25.703125 L 8.6875 -25.703125 L 8.6875 -15.625 L 18.859375 -15.625 L 18.859375 -25.703125 L 24.296875 -25.703125 Z M 24.296875 0 "/></g></g></g><g fill="#daa520" fill-opacity="1"><g transform="translate(54.310913, 314.005467)"><g><path d="M 4.03125 0 L 2.265625 0 L 2.265625 -14.984375 L 4.03125 -14.984375 Z M 4.03125 0 "/></g></g></g><g fill="#daa520" fill-opacity="1"><g transform="translate(64.813487, 314.005467)"><g><path d="M 3.984375 0 L 2.265625 0 L 2.265625 -14.984375 L 4.4375 -14.984375 L 11.734375 -3.53125 L 12 -3.578125 L 12 -14.984375 L 13.703125 -14.984375 L 13.703125 0 L 11.859375 0 L 4.25 -12.25 L 3.984375 -12.21875 Z M 3.984375 0 "/></g></g></g><g fill="#daa520" fill-opacity="1"><g transform="translate(84.990346, 314.005467)"><g><path d="M 7.109375 -14.984375 C 8.628906 -14.984375 9.929688 -14.710938 11.015625 -14.171875 C 12.109375 -13.628906 12.953125 -12.800781 13.546875 -11.6875 C 14.140625 -10.570312 14.4375 -9.175781 14.4375 -7.5 C 14.4375 -5.8125 14.140625 -4.410156 13.546875 -3.296875 C 12.953125 -2.179688 12.109375 -1.351562 11.015625 -0.8125 C 9.929688 -0.269531 8.628906 0 7.109375 0 L 2.265625 0 L 2.265625 -14.984375 Z M 6.9375 -1.5 C 8.1875 -1.5 9.222656 -1.691406 10.046875 -2.078125 C 10.867188 -2.472656 11.488281 -3.109375 11.90625 -3.984375 C 12.332031 -4.867188 12.546875 -6.039062 12.546875 -7.5 C 12.546875 -8.957031 12.332031 -10.125 11.90625 -11 C 11.488281 -11.882812 10.867188 -12.519531 10.046875 -12.90625 C 9.222656 -13.300781 8.1875 -13.5 6.9375 -13.5 L 4.03125 -13.5 L 4.03125 -1.5 Z M 6.9375 -1.5 "/></g></g></g><g fill="#daa520" fill-opacity="1"><g transform="translate(105.115959, 314.005467)"><g><path d="M 8.21875 0.21875 C 6.925781 0.21875 5.769531 -0.0625 4.75 -0.625 C 3.738281 -1.1875 2.941406 -2.039062 2.359375 -3.1875 C 1.785156 -4.34375 1.5 -5.78125 1.5 -7.5 C 1.5 -9.207031 1.785156 -10.640625 2.359375 -11.796875 C 2.941406 -12.953125 3.738281 -13.804688 4.75 -14.359375 C 5.769531 -14.921875 6.925781 -15.203125 8.21875 -15.203125 C 9.519531 -15.203125 10.675781 -14.921875 11.6875 -14.359375 C 12.695312 -13.804688 13.492188 -12.953125 14.078125 -11.796875 C 14.660156 -10.640625 14.953125 -9.207031 14.953125 -7.5 C 14.953125 -5.78125 14.660156 -4.34375 14.078125 -3.1875 C 13.492188 -2.039062 12.695312 -1.1875 11.6875 -0.625 C 10.675781 -0.0625 9.519531 0.21875 8.21875 0.21875 Z M 8.21875 -1.421875 C 9.78125 -1.421875 10.976562 -1.90625 11.8125 -2.875 C 12.644531 -3.851562 13.0625 -5.394531 13.0625 -7.5 C 13.0625 -9.601562 12.644531 -11.140625 11.8125 -12.109375 C 10.976562 -13.085938 9.78125 -13.578125 8.21875 -13.578125 C 5 -13.578125 3.390625 -11.550781 3.390625 -7.5 C 3.390625 -3.445312 5 -1.421875 8.21875 -1.421875 Z M 8.21875 -1.421875 "/></g></g></g><g fill="#daa520" fill-opacity="1"><g transform="translate(125.753982, 314.005467)"><g><path d="M 3.984375 0 L 2.265625 0 L 2.265625 -14.984375 L 4.4375 -14.984375 L 11.734375 -3.53125 L 12 -3.578125 L 12 -14.984375 L 13.703125 -14.984375 L 13.703125 0 L 11.859375 0 L 4.25 -12.25 L 3.984375 -12.21875 Z M 3.984375 0 "/></g></g></g><g fill="#daa520" fill-opacity="1"><g transform="translate(145.930841, 314.005467)"><g><path d="M 4.03125 -7.0625 L 4.03125 -1.453125 L 11.671875 -1.453125 L 11.671875 0 L 2.265625 0 L 2.265625 -14.984375 L 11.5 -14.984375 L 11.5 -13.53125 L 4.03125 -13.53125 L 4.03125 -8.515625 L 10.625 -8.515625 L 10.625 -7.0625 Z M 4.03125 -7.0625 "/></g></g></g><g fill="#daa520" fill-opacity="1"><g transform="translate(162.787289, 314.005467)"><g><path d="M 6.546875 0.21875 C 5.609375 0.21875 4.765625 0.09375 4.015625 -0.15625 C 3.265625 -0.414062 2.640625 -0.753906 2.140625 -1.171875 C 1.640625 -1.597656 1.269531 -2.054688 1.03125 -2.546875 L 1.984375 -3.71875 L 2.25 -3.71875 C 3.175781 -2.15625 4.609375 -1.375 6.546875 -1.375 C 7.679688 -1.375 8.519531 -1.609375 9.0625 -2.078125 C 9.613281 -2.554688 9.890625 -3.210938 9.890625 -4.046875 C 9.890625 -4.535156 9.800781 -4.953125 9.625 -5.296875 C 9.445312 -5.640625 9.144531 -5.929688 8.71875 -6.171875 C 8.300781 -6.421875 7.738281 -6.632812 7.03125 -6.8125 L 5.265625 -7.234375 C 3.960938 -7.554688 3 -8.054688 2.375 -8.734375 C 1.757812 -9.421875 1.453125 -10.289062 1.453125 -11.34375 C 1.453125 -12.09375 1.644531 -12.757812 2.03125 -13.34375 C 2.414062 -13.925781 2.972656 -14.378906 3.703125 -14.703125 C 4.441406 -15.035156 5.328125 -15.203125 6.359375 -15.203125 C 7.484375 -15.203125 8.429688 -15.039062 9.203125 -14.71875 C 9.984375 -14.40625 10.609375 -13.929688 11.078125 -13.296875 L 10.21875 -12.140625 L 9.953125 -12.140625 C 9.523438 -12.671875 9.015625 -13.054688 8.421875 -13.296875 C 7.835938 -13.546875 7.148438 -13.671875 6.359375 -13.671875 C 5.316406 -13.671875 4.53125 -13.46875 4 -13.0625 C 3.46875 -12.65625 3.203125 -12.097656 3.203125 -11.390625 C 3.203125 -10.710938 3.394531 -10.171875 3.78125 -9.765625 C 4.175781 -9.367188 4.835938 -9.0625 5.765625 -8.84375 L 7.5625 -8.421875 C 9.007812 -8.078125 10.0625 -7.550781 10.71875 -6.84375 C 11.375 -6.132812 11.703125 -5.226562 11.703125 -4.125 C 11.703125 -3.28125 11.507812 -2.53125 11.125 -1.875 C 10.75 -1.226562 10.175781 -0.71875 9.40625 -0.34375 C 8.632812 0.03125 7.679688 0.21875 6.546875 0.21875 Z M 6.546875 0.21875 "/></g></g></g><g fill="#daa520" fill-opacity="1"><g transform="translate(179.828205, 314.005467)"><g><path d="M 4.03125 0 L 2.265625 0 L 2.265625 -14.984375 L 4.03125 -14.984375 Z M 4.03125 0 "/></g></g></g><g fill="#daa520" fill-opacity="1"><g transform="translate(190.330779, 314.005467)"><g><path d="M 13.5 0 L 11.609375 0 L 10.21875 -4.109375 L 3.828125 -4.109375 L 2.4375 0 L 0.59375 0 L 5.828125 -14.984375 L 8.265625 -14.984375 Z M 6.90625 -13.171875 L 4.328125 -5.59375 L 9.71875 -5.59375 L 7.15625 -13.171875 Z M 6.90625 -13.171875 "/></g></g></g><g fill="#d9d9d9" fill-opacity="1"><g transform="translate(208.623403, 314.005467)"><g/></g></g><g fill="#daa520" fill-opacity="1"><g transform="translate(217.974965, 314.005467)"><g><path d="M 8.21875 0.21875 C 6.925781 0.21875 5.769531 -0.0625 4.75 -0.625 C 3.738281 -1.1875 2.941406 -2.039062 2.359375 -3.1875 C 1.785156 -4.34375 1.5 -5.78125 1.5 -7.5 C 1.5 -9.207031 1.785156 -10.640625 2.359375 -11.796875 C 2.941406 -12.953125 3.738281 -13.804688 4.75 -14.359375 C 5.769531 -14.921875 6.925781 -15.203125 8.21875 -15.203125 C 9.519531 -15.203125 10.675781 -14.921875 11.6875 -14.359375 C 12.695312 -13.804688 13.492188 -12.953125 14.078125 -11.796875 C 14.660156 -10.640625 14.953125 -9.207031 14.953125 -7.5 C 14.953125 -5.78125 14.660156 -4.34375 14.078125 -3.1875 C 13.492188 -2.039062 12.695312 -1.1875 11.6875 -0.625 C 10.675781 -0.0625 9.519531 0.21875 8.21875 0.21875 Z M 8.21875 -1.421875 C 9.78125 -1.421875 10.976562 -1.90625 11.8125 -2.875 C 12.644531 -3.851562 13.0625 -5.394531 13.0625 -7.5 C 13.0625 -9.601562 12.644531 -11.140625 11.8125 -12.109375 C 10.976562 -13.085938 9.78125 -13.578125 8.21875 -13.578125 C 5 -13.578125 3.390625 -11.550781 3.390625 -7.5 C 3.390625 -3.445312 5 -1.421875 8.21875 -1.421875 Z M 8.21875 -1.421875 "/></g></g></g><g fill="#daa520" fill-opacity="1"><g transform="translate(238.612987, 314.005467)"><g><path d="M 7.625 -14.984375 C 8.65625 -14.984375 9.539062 -14.800781 10.28125 -14.4375 C 11.019531 -14.070312 11.582031 -13.546875 11.96875 -12.859375 C 12.351562 -12.171875 12.546875 -11.359375 12.546875 -10.421875 C 12.546875 -9.492188 12.351562 -8.6875 11.96875 -8 C 11.582031 -7.320312 11.019531 -6.796875 10.28125 -6.421875 C 9.539062 -6.046875 8.65625 -5.859375 7.625 -5.859375 L 4.03125 -5.859375 L 4.03125 0 L 2.265625 0 L 2.265625 -14.984375 Z M 7.578125 -7.375 C 9.660156 -7.375 10.703125 -8.390625 10.703125 -10.421875 C 10.703125 -12.472656 9.660156 -13.5 7.578125 -13.5 L 4.03125 -13.5 L 4.03125 -7.375 Z M 7.578125 -7.375 "/></g></g></g><g fill="#daa520" fill-opacity="1"><g transform="translate(256.473757, 314.005467)"><g><path d="M 11.703125 -14.984375 L 11.703125 -13.5 L 7 -13.5 L 7 0 L 5.25 0 L 5.25 -13.5 L 0.546875 -13.5 L 0.546875 -14.984375 Z M 11.703125 -14.984375 "/></g></g></g><g fill="#daa520" fill-opacity="1"><g transform="translate(272.910024, 314.005467)"><g><path d="M 4.03125 0 L 2.265625 0 L 2.265625 -14.984375 L 4.03125 -14.984375 Z M 4.03125 0 "/></g></g></g><g fill="#daa520" fill-opacity="1"><g transform="translate(283.412598, 314.005467)"><g><path d="M 3.890625 0 L 2.265625 0 L 2.265625 -14.984375 L 4.875 -14.984375 L 9.421875 -2.296875 L 9.640625 -2.296875 L 14.1875 -14.984375 L 16.703125 -14.984375 L 16.703125 0 L 15.03125 0 L 15.03125 -12.234375 L 14.78125 -12.28125 L 10.34375 0 L 8.59375 0 L 4.15625 -12.28125 L 3.890625 -12.234375 Z M 3.890625 0 "/></g></g></g><g fill="#daa520" fill-opacity="1"><g transform="translate(306.581928, 314.005467)"><g><path d="M 13.5 0 L 11.609375 0 L 10.21875 -4.109375 L 3.828125 -4.109375 L 2.4375 0 L 0.59375 0 L 5.828125 -14.984375 L 8.265625 -14.984375 Z M 6.90625 -13.171875 L 4.328125 -5.59375 L 9.71875 -5.59375 L 7.15625 -13.171875 Z M 6.90625 -13.171875 "/></g></g></g></svg>